<?xml version="1.0" standalone="no"?>
<!DOCTYPE svg PUBLIC "-//W3C//DTD SVG 20010904//EN"
 "http://www.w3.org/TR/2001/REC-SVG-20010904/DTD/svg10.dtd">
<svg version="1.0" xmlns="http://www.w3.org/2000/svg"
 width="1200.000000pt" height="1200.000000pt" viewBox="0 0 1200.000000 1200.000000"
 preserveAspectRatio="xMidYMid meet">
<metadata>
Created by potrace 1.16, written by Peter Selinger 2001-2019
</metadata>
<g transform="translate(0.000000,1200.000000) scale(0.100000,-0.100000)"
fill="#000000" stroke="none">
<path d="M5670 9729 c-159 -13 -427 -58 -590 -100 -660 -168 -1241 -499 -1725
-984 -631 -631 -1012 -1448 -1085 -2330 -13 -154 -13 -476 0 -630 73 -877 451
-1693 1075 -2321 82 -83 196 -189 253 -236 523 -434 1152 -721 1802 -822 222
-35 367 -46 600 -46 618 0 1160 131 1710 411 358 182 651 398 945 693 624 628
1002 1444 1075 2321 13 154 13 476 0 630 -73 877 -451 1693 -1075 2321 -294
295 -587 511 -945 693 -448 229 -907 360 -1395 401 -138 11 -505 11 -645 -1z
m-110 -1419 c429 -39 815 -193 1057 -423 309 -294 463 -700 463 -1221 0 -680
-264 -1165 -780 -1435 -162 -84 -329 -140 -510 -171 -36 -6 -75 -13 -87 -15
l-23 -5 0 -685 0 -685 -270 0 -270 0 0 2325 0 2325 153 0 c83 0 204 -5 267
-10z"/>
<path d="M5680 6670 l0 -1087 83 14 c294 51 510 209 639 468 46 92 72 170 99
296 19 89 23 135 23 309 0 217 -15 326 -66 474 -116 339 -366 549 -720 604
l-58 9 0 -1087z"/>
</g>
</svg>
